<svg style="position: absolute; width: 0; height: 0; overflow: hidden;" aria-hidden="true" version="1.1" xmlns="http://www.w3.org/2000/svg" xmlns:xlink="http://www.w3.org/1999/xlink">
    <defs>
        <symbol id="Youtube" viewBox="0 0 24 24" fill="none">
            <title>Youtube</title>
            <path fill="currentColor" d="M21.5933 7.203c-0.1139-0.4226-0.3365-0.808-0.6456-1.1178-0.3091-0.3099-0.694-0.5333-1.1164-0.6482C18.2653 5.007 12.0003 5 12.0003 5c0 0-6.264-7e-3-7.831 0.404-0.4221 0.1201-0.8062 0.3468-1.1154 0.6581-0.3093 0.3114-0.5333 0.697-0.6506 1.1199-0.413 1.566-0.417 4.814-0.417 4.814 0 0-4e-3 3.264 0.406 4.814 0.23 0.857 0.905 1.534 1.763 1.765 1.582 0.43 7.83 0.437 7.83 0.437s6.265 7e-3 7.831-0.403c0.4225-0.1147 0.8078-0.3376 1.1177-0.6468s0.5337-0.694 0.6493-1.1162c0.414-1.565 0.417-4.812 0.417-4.812s0.02-3.265-0.407-4.831zM9.9963 15.005l5e-3-6 5.207 3.005z" />
        </symbol>
        <symbol id="x" viewBox="0 0 24 24" fill="none">
            <title>x</title>
            <path fill="currentColor" d="M16.192 6.3442l-4.243 4.242-4.242-4.242-1.414 1.414 4.242 4.242-4.242 4.242 1.414 1.414 4.242-4.242 4.243 4.242 1.414-1.414-4.242-4.242 4.242-4.242z" />
        </symbol>
        <symbol id="menu" viewBox="0 0 24 24" fill="none">
            <title>menu</title>
            <path fill="currentColor" d="M4 6h16v2H4zM4 11h16v2H4zM4 16h16v2H4z" />
        </symbol>
        <symbol id="LinkedIn" viewBox="0 0 24 24" fill="none">
            <title>LinkedIn</title>
            <path fill="currentColor" d="M19.3125 3H4.6875C3.7594 3 3 3.7594 3 4.6875v14.625C3 20.2406 3.7594 21 4.6875 21h14.625C20.2406 21 21 20.2406 21 19.3125V4.6875C21 3.7594 20.2406 3 19.3125 3zM9.75 17.625H7.5V9.75h2.25zM8.625 8.625C8.0029 8.625 7.5 8.1221 7.5 7.5c0-0.6221 0.5029-1.125 1.125-1.125S9.75 6.8779 9.75 7.5c0 0.6221-0.5029 1.125-1.125 1.125zM17.625 17.625h-2.25v-4.5c0-0.6221-0.5029-1.125-1.125-1.125s-1.125 0.5029-1.125 1.125v4.5h-2.25V9.75h2.25v1.3956c0.4641-0.6362 1.1739-1.3956 1.9688-1.3956 1.3994 0 2.5312 1.2589 2.5312 2.8125z" />
        </symbol>
        <symbol id="Instagram" viewBox="0 0 24 24" fill="currentColor">
            <title>Instagram</title>
            <path d="M11.9988 4.6209c2.4044 0 2.689 0.0107 3.6344 0.0529 0.8791 0.0388 1.3532 0.1861 1.6698 0.3093 0.4185 0.162 0.7205 0.3588 1.0332 0.6715 0.3166 0.3167 0.5096 0.6153 0.6749 1.0338 0.1232 0.3166 0.2705 0.7941 0.3093 1.6698 0.0422 0.9494 0.0529 1.234 0.0529 3.635 0 2.401-0.0107 2.6889-0.0529 3.6349-0.0388 0.8791-0.1861 1.3532-0.3093 1.6699-0.162 0.4184-0.3583 0.7204-0.6715 1.0331-0.3167 0.3167-0.6153 0.5096-1.0332 0.675-0.3166 0.1231-0.7947 0.2705-1.6698 0.3093-0.9494 0.0422-1.234 0.0529-3.635 0.0529-2.401 0-2.6889-0.0107-3.6349-0.0529-0.8791-0.0388-1.3532-0.1862-1.6699-0.3093-0.4184-0.162-0.7205-0.3583-1.0337-0.6716-0.3167-0.3166-0.5096-0.6153-0.6749-1.0332-0.1232-0.3166-0.2706-0.7947-0.3094-1.6698-0.0421-0.9494-0.0528-1.234-0.0528-3.635 0-2.4009 0.0107-2.6889 0.0528-3.6349 0.0388-0.8791 0.1862-1.3532 0.3094-1.6698C5.1502 6.2733 5.347 5.9713 5.6597 5.658 5.9764 5.3414 6.275 5.1485 6.6934 4.9831 7.0101 4.8599 7.4876 4.7126 8.3633 4.6738c0.9454-0.0422 1.2306-0.0529 3.6349-0.0529zM11.9988 3.0006c-2.4432 0-2.7486 0.0107-3.7086 0.0528-0.9561 0.0422-1.6136 0.1969-2.1828 0.4185-0.5939 0.2317-1.0967 0.5377-1.5956 1.0405C4.009 5.0118 3.703 5.514 3.4713 6.1046 3.2497 6.6777 3.0951 7.3312 3.0529 8.2874 3.0107 9.2508 3 9.5562 3 11.9994c0 2.4431 0.0107 2.7485 0.0529 3.7086 0.0421 0.9561 0.1968 1.6136 0.4184 2.1828 0.2323 0.5939 0.5377 1.0967 1.0405 1.5956 0.4989 0.4988 1.0017 0.8087 1.5922 1.0371 0.5731 0.2216 1.2267 0.3762 2.1828 0.4184 0.9595 0.0422 1.2655 0.0529 3.7086 0.0529 2.4432 0 2.7492-0.0107 3.7087-0.0529 0.9561-0.0422 1.6136-0.1968 2.1827-0.4184 0.5906-0.2284 1.0934-0.5377 1.5923-1.0371 0.4988-0.4995 0.8087-1.0017 1.0371-1.5923 0.2216-0.5731 0.3762-1.2266 0.4184-2.1827 0.0422-0.9595 0.0529-1.2655 0.0529-3.7087 0-2.4431-0.0107-2.7485-0.0529-3.7086-0.0422-0.9561-0.1968-1.6136-0.4184-2.1828-0.2216-0.5978-0.5276-1.1001-1.0298-1.5995-0.4989-0.4989-1.0017-0.8088-1.5923-1.0371-0.5731-0.2216-1.2266-0.3763-2.1827-0.4185C14.7485 3.0107 14.4425 3 11.9994 3z" />
            <path d="M11.9976 7.3767c-2.5518 0-4.6226 2.0703-4.6226 4.6226s2.0703 4.6226 4.6226 4.6226c2.5523 0 4.6225-2.0703 4.6225-4.6226 0-2.5517-2.0702-4.6226-4.6225-4.6226zM11.9976 14.9976c-1.6558 0-2.9983-1.3425-2.9983-2.9983 0-1.6558 1.3425-2.9983 2.9983-2.9983 1.6557 0 2.9983 1.3425 2.9983 2.9983s-1.3426 2.9983-2.9983 2.9983z" />
            <path d="M17.8812 7.194c0 0.5962-0.4831 1.0793-1.0793 1.0793-0.5961 0-1.0792-0.4831-1.0792-1.0793 0-0.5961 0.4831-1.0793 1.0792-1.0793 0.5962 0 1.0793 0.4832 1.0793 1.0793z" />
        </symbol>
        <symbol id="Favicon" viewBox="0 0 32 32" fill="currentColor">
            <title>Favicon</title>
            <path d="M15.4506 6.4195c0.2964 0.1472 0.6297 0.5699 0.8534 0.8199 1.9195 2.1442 2.9263 4.8752 2.7482 7.75-0.1724 2.7819-1.5462 5.2521-3.6083 7.0777-0.3905-0.2669-0.7478-0.6468-1.0602-1-1.7517-1.9812-2.7119-4.7648-2.5446-7.4056 0.1724-2.7227 1.5642-5.4471 3.6115-7.242z" />
            <path d="M23.6207 10.3131c57e-4 97e-4 0.0122 0.0189 0.0171 0.029 0.1092 0.2224 0.1408 0.5754 0.1685 0.8223 0.1443 1.284 0.0249 2.5713-0.4267 3.7871-1.1282 3.0372-3.736 5.273-6.6193 6.5984-0.034-4e-4-0.0112 23e-4-0.063-0.0279 0.1761-0.2882 0.4219-0.5458 0.6252-0.8167 0.3109-0.4228 0.5927-0.8662 0.8432-1.3269 0.8833-1.6253 1.3057-3.4127 1.3043-5.256-3e-4-0.5235-0.0123-1.0464-0.1638-1.5517 0.2704-0.3001 0.6017-0.553 0.9233-0.7964 1.0365-0.7844 2.0809-1.3303 3.3912-1.4612z" />
            <path d="M7.2455 10.3259c0.1556 59e-4 0.3126 0.0261 0.4665 0.0496 1.1844 0.1802 2.2207 0.8109 3.1459 1.5408 0.2583 0.2038 0.5408 0.4162 0.7353 0.6839-0.492 2.5275 0.1605 5.1776 1.4674 7.3635 0.2087 0.3474 0.4342 0.6844 0.6756 1.0101 0.1153 0.1552 0.2525 0.296 0.3559 0.4589l-0.0366 0.0475c-2.1548-0.9215-4.1734-2.5522-5.472-4.5013-1.3624-2.0449-1.8129-4.2477-1.338-6.653z" />
            <path d="M25.7283 15.9661c0.3436-0.041 1.1136-0.0843 1.4016 0.0991 0.0145 0.0433 0.0188 0.0476 0.0203 0.1002 58e-4 0.2015-0.1259 0.5033-0.1942 0.6913-0.457 1.2976-1.2394 2.4563-2.2722 3.3651-2.0219 1.7877-4.6427 2.4291-7.2895 2.2589-0.5-0.0522-1.0153-0.087-1.4959-0.2402 2.2176-0.6821 4.3271-2.0756 5.8555-3.8158 0.3757-0.4279 0.6511-0.9246 1.0167-1.3548 0.6938-0.8167 1.9518-1.0326 2.9577-1.1038z" />
            <path d="M4.5431 16.0338c1.0334-0.1218 2.4357 0.0484 3.2869 0.6918 0.506 0.3826 0.811 1.0929 1.2293 1.5765 1.3079 1.5146 2.946 2.7089 4.7882 3.4907 0.3923 0.1679 0.7961 0.3432 1.2109 0.4453l-0.8291 0.1385c-2.4145 0.3475-4.9165-0.0839-6.9824-1.4271-1.4068-0.915-2.3974-2.1696-2.9797-3.7345-0.0855-0.2295-0.2135-0.4786-0.2572-0.7177-0.0255-0.1397-31e-4-0.2317 0.0785-0.3501 0.1299-0.0956 0.2987-0.0944 0.4546-0.1134z" />
            <path d="M15.5762 22.4018c0.42 0.1493 0.8427 0.2689 1.2833 0.3404 0.7591 0.1231 1.6411 0.0871 2.3231 0.4825 0.5036 0.2921 1.0194 0.9761 1.1617 1.5432 0.0261 0.1041 0.0186 0.1126-0.0348 0.1989-0.5271 0.1899-1.039 0.1447-1.5635-0.0271-1.2635-0.4132-2.5514-1.334-3.1698-2.5379z" />
            <path d="M15.3384 22.4049c0.0266-23e-4 0.0522 0.0116 0.078 0.0189-13e-4 0.012-11e-4 0.0244-4e-3 0.0364-0.0648 0.2689-1.105 1.3653-1.3452 1.5552-0.8299 0.6554-2.0622 1.1757-3.133 1.0477-0.0286-62e-4-0.0684-0.0139-0.0944-0.0259-0.0577-0.0267-0.0942-0.048-0.1094-0.1103-0.0406-0.1675 0.0546-0.3617 0.1308-0.5072 0.2452-0.4689 0.6293-1.019 1.1105-1.2724 0.5931-0.3118 1.4689-0.3107 2.1281-0.4279 0.4223-0.075 0.8292-0.1896 1.2386-0.3145z" />
        </symbol>
        <symbol id="Facebook" viewBox="0 0 24 24" fill="none">
            <title>Facebook</title>
            <path fill="currentColor" d="M22 12.3038c0-5.5566-4.4771-10.0611-10-10.0611-5.5228 0-10 4.5045-10 10.0611 0 5.0217 3.6568 9.1841 8.4375 9.9389v-7.0306H7.8984l0-2.9083h2.5391v-2.2166c0-2.5216 1.493-3.9144 3.7771-3.9144 1.0942 0 2.2385 0.1965 2.2385 0.1965v2.476l-1.2609 0c-1.2422 0-1.6297 0.7756-1.6297 1.5713v1.8872h2.7734l-0.4433 2.9083h-2.3301v7.0306C18.3432 21.4879 22 17.3257 22 12.3038z" />
        </symbol>
        <symbol id="bigX" viewBox="0 0 24 24" fill="none">
            <title>bigX</title>
            <path fill="currentColor" d="M17.1761 4.2427l2.7601 0-6.0301 6.7774L21 20.2427h-5.5544l-4.3505-5.5934-4.9779 5.5934H3.3554l6.4498-7.2492L3 4.2427l5.6954 0 3.9325 5.1126zM16.2073 18.6181h1.5295L7.8644 5.782l-1.6412 0z" />
        </symbol>
    </defs>
</svg>